<?xml version="1.0" standalone="no"?>
<!DOCTYPE svg PUBLIC "-//W3C//DTD SVG 20010904//EN"
 "http://www.w3.org/TR/2001/REC-SVG-20010904/DTD/svg10.dtd">
<svg version="1.0" xmlns="http://www.w3.org/2000/svg"
 width="360.000000pt" height="270.000000pt" viewBox="0 0 360.000000 270.000000"
 preserveAspectRatio="xMidYMid meet">

<g transform="translate(0.000000,270.000000) scale(0.100000,-0.100000)"
fill="#000000" stroke="none">
<path d="M1550 2667 c0 -7 5 -18 12 -25 9 -9 7 -16 -7 -32 -10 -11 -20 -18
-23 -16 -2 3 -15 -7 -29 -22 -14 -15 -21 -20 -14 -11 8 11 7 19 -2 29 -10 12
-9 12 6 1 19 -15 24 -2 5 17 -9 9 -6 11 11 7 17 -3 21 0 17 10 -3 8 -1 14 3
12 5 -1 9 1 10 6 4 27 -35 -4 -593 -482 -186 -159 -189 -161 -225 -154 -20 5
-61 8 -92 7 -66 0 -108 -22 -153 -77 -28 -35 -31 -47 -36 -127 l-5 -88 -185
-159 c-179 -155 -185 -161 -182 -194 6 -58 24 -74 109 -98 43 -13 98 -29 123
-36 25 -7 76 -22 113 -33 37 -11 70 -22 73 -24 10 -10 -18 -62 -102 -190 -93
-141 -140 -194 -219 -246 -50 -33 -53 -34 -129 -20 -31 5 -29 -20 3 -36 94
-49 211 27 342 221 95 140 84 96 -32 -126 -123 -238 -220 -364 -290 -378 -17
-3 -33 -11 -35 -18 -5 -13 45 -95 58 -95 4 0 8 -6 8 -13 0 -8 9 -22 20 -32 11
-10 20 -24 20 -31 0 -7 9 -16 20 -19 11 -3 20 -11 20 -17 0 -17 61 -68 81 -68
10 0 19 -6 19 -13 0 -8 11 -24 24 -36 20 -19 30 -21 51 -14 27 9 39 25 73 103
11 25 47 101 80 170 140 293 203 469 203 569 0 93 -6 182 -15 209 -4 12 -3 22
2 22 4 0 67 -17 138 -39 l129 -38 2 -79 c1 -44 2 -84 2 -91 2 -32 143 -89 281
-113 195 -35 321 -40 725 -27 31 1 52 -7 89 -33 28 -18 51 -29 53 -24 12 35
66 114 78 114 22 0 191 58 295 102 182 76 456 233 520 298 28 27 59 76 65 102
6 23 -19 99 -57 176 -8 15 -9 28 -3 37 6 7 137 122 293 255 164 141 282 248
282 258 0 37 -22 91 -38 96 -9 3 -89 26 -177 51 -88 26 -227 66 -310 90 -180
52 -527 153 -835 242 -124 35 -270 77 -325 93 -55 15 -147 42 -205 59 -116 34
-140 37 -140 18z m-84 -123 c1 -9 0 -13 -4 -10 -3 4 -7 14 -8 22 -1 9 0 13 4
10 3 -4 7 -14 8 -22z m-808 -622 c-5 -14 -118 -112 -128 -112 -24 0 -3 68 31
99 22 20 105 31 97 13z m-30 -624 c7 -7 12 -24 12 -39 0 -25 -2 -26 -47 -24
-37 1 -49 6 -51 19 -8 40 57 73 86 44z m61 -342 c9 -11 9 -16 -1 -22 -7 -4
-10 -4 -6 1 4 4 3 14 -3 22 -6 7 -9 13 -6 13 2 0 10 -6 16 -14z"/>
<path d="M1540 2620 c-6 -11 -8 -20 -6 -20 3 0 10 9 16 20 6 11 8 20 6 20 -3
0 -10 -9 -16 -20z"/>
</g>
</svg>
